<svg xmlns="http://www.w3.org/2000/svg" viewBox="0 0 512 512" fill="none">
  <defs>
    <linearGradient id="bg" x1="64" y1="48" x2="448" y2="464" gradientUnits="userSpaceOnUse">
      <stop offset="0" stop-color="#0b1020"/>
      <stop offset="0.52" stop-color="#050508"/>
      <stop offset="1" stop-color="#090d18"/>
    </linearGradient>
    <linearGradient id="frame" x1="106" y1="88" x2="404" y2="424" gradientUnits="userSpaceOnUse">
      <stop offset="0" stop-color="#a855f7"/>
      <stop offset="0.48" stop-color="#6366f1"/>
      <stop offset="1" stop-color="#22d3ee"/>
    </linearGradient>
    <linearGradient id="mark" x1="156" y1="160" x2="356" y2="372" gradientUnits="userSpaceOnUse">
      <stop offset="0" stop-color="#ffffff"/>
      <stop offset="0.58" stop-color="#dbeafe"/>
      <stop offset="1" stop-color="#7dd3fc"/>
    </linearGradient>
    <radialGradient id="glow" cx="0" cy="0" r="1" gradientUnits="userSpaceOnUse" gradientTransform="translate(256 214) rotate(90) scale(168 168)">
      <stop offset="0" stop-color="#8b5cf6" stop-opacity="0.5"/>
      <stop offset="0.62" stop-color="#38bdf8" stop-opacity="0.16"/>
      <stop offset="1" stop-color="#38bdf8" stop-opacity="0"/>
    </radialGradient>
    <filter id="shadow" x="48" y="48" width="416" height="416" filterUnits="userSpaceOnUse" color-interpolation-filters="sRGB">
      <feFlood flood-opacity="0" result="BackgroundImageFix"/>
      <feGaussianBlur in="SourceAlpha" stdDeviation="10"/>
      <feOffset dy="10"/>
      <feColorMatrix values="0 0 0 0 0.47 0 0 0 0 0.22 0 0 0 0 0.95 0 0 0 0.35 0"/>
      <feBlend in2="BackgroundImageFix" result="effect1_dropShadow"/>
      <feBlend in="SourceGraphic" in2="effect1_dropShadow" result="shape"/>
    </filter>
  </defs>

  <rect x="24" y="24" width="464" height="464" rx="128" fill="url(#bg)"/>
  <rect x="24" y="24" width="464" height="464" rx="128" stroke="rgba(255,255,255,0.06)" stroke-width="2"/>
  <circle cx="256" cy="214" r="168" fill="url(#glow)"/>

  <g filter="url(#shadow)">
    <path d="M176 142H336C378.421 142 413 176.579 413 219V293C413 335.421 378.421 370 336 370H176C133.579 370 99 335.421 99 293V219C99 176.579 133.579 142 176 142Z" fill="rgba(255,255,255,0.03)"/>
    <path d="M176 142H336C378.421 142 413 176.579 413 219V293C413 335.421 378.421 370 336 370H176C133.579 370 99 335.421 99 293V219C99 176.579 133.579 142 176 142Z" stroke="url(#frame)" stroke-width="10"/>

    <text x="256" y="320" text-anchor="middle" fill="url(#mark)" font-family="Inter, Arial Black, Arial, sans-serif" font-size="150" font-weight="900" letter-spacing="-8">JJP</text>
    <path d="M154 352C188 370 325 370 358 352" stroke="url(#frame)" stroke-width="3" stroke-opacity="0.35" stroke-linecap="round"/>
  </g>

  <circle cx="386" cy="138" r="10" fill="#22d3ee"/>
  <circle cx="386" cy="138" r="22" stroke="#22d3ee" stroke-opacity="0.18" stroke-width="8"/>
</svg>